<svg xmlns="http://www.w3.org/2000/svg" viewBox="0 0 400 400" role="img" aria-label="Goa Stories logo">
  <rect width="400" height="400" rx="48" fill="#fff7e8"/>
  <circle cx="200" cy="200" r="142" fill="#f9c74f"/>
  <circle cx="200" cy="200" r="108" fill="#f5a623"/>
  <path d="M135 182c20-54 92-74 132-18 10 14 16 32 16 49 0 44-35 80-80 80s-80-36-80-80c0-10 2-20 12-31z" fill="#7a3b12"/>
  <path d="M170 188c5-17 23-26 40-22 16 4 27 18 27 33 0 16-11 31-28 35-18 4-37-6-42-24-2-6-2-12 3-22z" fill="#fff3d6"/>
  <path d="M169 290c19 14 43 20 66 18 25-2 47-14 61-34-16 9-34 15-53 16-22 2-42-1-74-17z" fill="#8b5e3c"/>
  <text x="200" y="354" text-anchor="middle" font-family="Poppins, Arial, sans-serif" font-size="38" font-weight="700" fill="#7a3b12">GOA STORIES</text>
</svg>
